<mxfile host="app.diagrams.net" modified="2024-08-05T17:39:07.821Z" agent="Mozilla/5.0 (X11; Ubuntu; Linux x86_64; rv:128.0) Gecko/20100101 Firefox/128.0" etag="9zyTO1JJZuuJPp6gwyjj" version="24.7.1" type="device">
  <diagram name="Page-1" id="L6ueVR1rmZ4OTloRVOAJ">
    <mxGraphModel dx="1776" dy="2029" grid="1" gridSize="10" guides="1" tooltips="1" connect="1" arrows="1" fold="1" page="1" pageScale="1" pageWidth="850" pageHeight="1100" math="0" shadow="0">
      <root>
        <mxCell id="0" />
        <mxCell id="1" parent="0" />
        <mxCell id="q35TZ0qUf0RJZbmUq1Yi-2" style="edgeStyle=orthogonalEdgeStyle;rounded=0;orthogonalLoop=1;jettySize=auto;html=1;entryX=0.5;entryY=1;entryDx=0;entryDy=0;" edge="1" parent="1" source="q35TZ0qUf0RJZbmUq1Yi-1" target="q35TZ0qUf0RJZbmUq1Yi-4">
          <mxGeometry relative="1" as="geometry">
            <mxPoint x="380" y="240" as="targetPoint" />
          </mxGeometry>
        </mxCell>
        <mxCell id="q35TZ0qUf0RJZbmUq1Yi-3" value="airo:hasTrainingData" style="edgeLabel;html=1;align=center;verticalAlign=middle;resizable=0;points=[];" vertex="1" connectable="0" parent="q35TZ0qUf0RJZbmUq1Yi-2">
          <mxGeometry x="-0.1734" y="-3" relative="1" as="geometry">
            <mxPoint as="offset" />
          </mxGeometry>
        </mxCell>
        <mxCell id="q35TZ0qUf0RJZbmUq1Yi-28" style="edgeStyle=orthogonalEdgeStyle;rounded=0;orthogonalLoop=1;jettySize=auto;html=1;exitX=0.5;exitY=1;exitDx=0;exitDy=0;" edge="1" parent="1" source="q35TZ0qUf0RJZbmUq1Yi-1">
          <mxGeometry relative="1" as="geometry">
            <mxPoint x="380" y="440" as="targetPoint" />
          </mxGeometry>
        </mxCell>
        <mxCell id="q35TZ0qUf0RJZbmUq1Yi-32" value="airo:hasDocumentation" style="edgeLabel;html=1;align=center;verticalAlign=middle;resizable=0;points=[];" vertex="1" connectable="0" parent="q35TZ0qUf0RJZbmUq1Yi-28">
          <mxGeometry x="-0.1636" y="-2" relative="1" as="geometry">
            <mxPoint as="offset" />
          </mxGeometry>
        </mxCell>
        <mxCell id="q35TZ0qUf0RJZbmUq1Yi-74" style="edgeStyle=orthogonalEdgeStyle;rounded=0;orthogonalLoop=1;jettySize=auto;html=1;exitX=1;exitY=0.5;exitDx=0;exitDy=0;" edge="1" parent="1" source="q35TZ0qUf0RJZbmUq1Yi-1">
          <mxGeometry relative="1" as="geometry">
            <mxPoint x="560" y="330" as="targetPoint" />
          </mxGeometry>
        </mxCell>
        <mxCell id="q35TZ0qUf0RJZbmUq1Yi-75" value="airo:hasModel" style="edgeLabel;html=1;align=center;verticalAlign=middle;resizable=0;points=[];" vertex="1" connectable="0" parent="q35TZ0qUf0RJZbmUq1Yi-74">
          <mxGeometry x="0.2197" y="-2" relative="1" as="geometry">
            <mxPoint x="-13" y="-2" as="offset" />
          </mxGeometry>
        </mxCell>
        <mxCell id="q35TZ0qUf0RJZbmUq1Yi-1" value="airo:MLModel" style="rounded=0;whiteSpace=wrap;html=1;fillColor=#FBFF80;" vertex="1" parent="1">
          <mxGeometry x="320" y="300" width="120" height="60" as="geometry" />
        </mxCell>
        <mxCell id="q35TZ0qUf0RJZbmUq1Yi-33" style="edgeStyle=orthogonalEdgeStyle;rounded=0;orthogonalLoop=1;jettySize=auto;html=1;" edge="1" parent="1" source="q35TZ0qUf0RJZbmUq1Yi-4">
          <mxGeometry relative="1" as="geometry">
            <mxPoint x="160" y="140" as="targetPoint" />
          </mxGeometry>
        </mxCell>
        <mxCell id="q35TZ0qUf0RJZbmUq1Yi-35" value="airo:hasDocumentation" style="edgeLabel;html=1;align=center;verticalAlign=middle;resizable=0;points=[];" vertex="1" connectable="0" parent="q35TZ0qUf0RJZbmUq1Yi-33">
          <mxGeometry x="-0.1989" y="-1" relative="1" as="geometry">
            <mxPoint as="offset" />
          </mxGeometry>
        </mxCell>
        <mxCell id="q35TZ0qUf0RJZbmUq1Yi-4" value="dcat:Dataset" style="rounded=0;whiteSpace=wrap;html=1;fillColor=#FBFF80;" vertex="1" parent="1">
          <mxGeometry x="320" y="110" width="120" height="60" as="geometry" />
        </mxCell>
        <mxCell id="q35TZ0qUf0RJZbmUq1Yi-8" style="edgeStyle=orthogonalEdgeStyle;rounded=0;orthogonalLoop=1;jettySize=auto;html=1;entryX=0;entryY=0.5;entryDx=0;entryDy=0;" edge="1" parent="1" source="q35TZ0qUf0RJZbmUq1Yi-7" target="q35TZ0qUf0RJZbmUq1Yi-1">
          <mxGeometry relative="1" as="geometry" />
        </mxCell>
        <mxCell id="q35TZ0qUf0RJZbmUq1Yi-13" value="airo:hasModel" style="edgeLabel;html=1;align=center;verticalAlign=middle;resizable=0;points=[];" vertex="1" connectable="0" parent="q35TZ0qUf0RJZbmUq1Yi-8">
          <mxGeometry x="-0.1241" y="-1" relative="1" as="geometry">
            <mxPoint y="-1" as="offset" />
          </mxGeometry>
        </mxCell>
        <mxCell id="q35TZ0qUf0RJZbmUq1Yi-9" style="edgeStyle=orthogonalEdgeStyle;rounded=0;orthogonalLoop=1;jettySize=auto;html=1;" edge="1" parent="1" source="q35TZ0qUf0RJZbmUq1Yi-7">
          <mxGeometry relative="1" as="geometry">
            <mxPoint x="75" y="410" as="targetPoint" />
          </mxGeometry>
        </mxCell>
        <mxCell id="q35TZ0qUf0RJZbmUq1Yi-10" style="edgeStyle=orthogonalEdgeStyle;rounded=0;orthogonalLoop=1;jettySize=auto;html=1;exitX=0.5;exitY=1;exitDx=0;exitDy=0;" edge="1" parent="1" source="q35TZ0qUf0RJZbmUq1Yi-7">
          <mxGeometry relative="1" as="geometry">
            <mxPoint x="25" y="410" as="targetPoint" />
          </mxGeometry>
        </mxCell>
        <mxCell id="q35TZ0qUf0RJZbmUq1Yi-30" style="edgeStyle=orthogonalEdgeStyle;rounded=0;orthogonalLoop=1;jettySize=auto;html=1;exitX=0.5;exitY=1;exitDx=0;exitDy=0;" edge="1" parent="1" source="q35TZ0qUf0RJZbmUq1Yi-7">
          <mxGeometry relative="1" as="geometry">
            <mxPoint x="124.99999999999989" y="410" as="targetPoint" />
          </mxGeometry>
        </mxCell>
        <mxCell id="q35TZ0qUf0RJZbmUq1Yi-7" value="airo:AISystem" style="rounded=0;whiteSpace=wrap;html=1;fillColor=#FBFF80;" vertex="1" parent="1">
          <mxGeometry x="15" y="300" width="120" height="60" as="geometry" />
        </mxCell>
        <mxCell id="q35TZ0qUf0RJZbmUq1Yi-12" value="Existing&lt;br&gt;&lt;div&gt;AIRO AI system&amp;nbsp;&lt;/div&gt;components &amp;amp; risks" style="text;html=1;align=center;verticalAlign=middle;resizable=0;points=[];autosize=1;strokeColor=none;fillColor=#FBFF80;" vertex="1" parent="1">
          <mxGeometry x="10" y="420" width="130" height="60" as="geometry" />
        </mxCell>
        <mxCell id="q35TZ0qUf0RJZbmUq1Yi-15" style="edgeStyle=orthogonalEdgeStyle;rounded=0;orthogonalLoop=1;jettySize=auto;html=1;exitX=0;exitY=0.5;exitDx=0;exitDy=0;entryX=1;entryY=0.5;entryDx=0;entryDy=0;" edge="1" parent="1" source="q35TZ0qUf0RJZbmUq1Yi-14" target="q35TZ0qUf0RJZbmUq1Yi-4">
          <mxGeometry relative="1" as="geometry" />
        </mxCell>
        <mxCell id="q35TZ0qUf0RJZbmUq1Yi-16" value="dqv:computedOn" style="edgeLabel;html=1;align=center;verticalAlign=middle;resizable=0;points=[];fontStyle=0" vertex="1" connectable="0" parent="q35TZ0qUf0RJZbmUq1Yi-15">
          <mxGeometry x="-0.0326" y="4" relative="1" as="geometry">
            <mxPoint y="-4" as="offset" />
          </mxGeometry>
        </mxCell>
        <mxCell id="q35TZ0qUf0RJZbmUq1Yi-18" style="edgeStyle=orthogonalEdgeStyle;rounded=0;orthogonalLoop=1;jettySize=auto;html=1;exitX=0.5;exitY=0;exitDx=0;exitDy=0;entryX=0.5;entryY=1;entryDx=0;entryDy=0;" edge="1" parent="1" source="q35TZ0qUf0RJZbmUq1Yi-14" target="q35TZ0qUf0RJZbmUq1Yi-17">
          <mxGeometry relative="1" as="geometry" />
        </mxCell>
        <mxCell id="q35TZ0qUf0RJZbmUq1Yi-19" value="dqv:isMeasurementOf" style="edgeLabel;html=1;align=center;verticalAlign=middle;resizable=0;points=[];fontStyle=0" vertex="1" connectable="0" parent="q35TZ0qUf0RJZbmUq1Yi-18">
          <mxGeometry x="-0.092" y="1" relative="1" as="geometry">
            <mxPoint as="offset" />
          </mxGeometry>
        </mxCell>
        <mxCell id="q35TZ0qUf0RJZbmUq1Yi-14" value="&lt;font style=&quot;font-size: 10px;&quot;&gt;dqv:QualityMeasurement&lt;/font&gt;" style="rounded=0;whiteSpace=wrap;html=1;fillColor=#4DFF5E;" vertex="1" parent="1">
          <mxGeometry x="550" y="120" width="150" height="40" as="geometry" />
        </mxCell>
        <mxCell id="q35TZ0qUf0RJZbmUq1Yi-20" style="edgeStyle=orthogonalEdgeStyle;rounded=0;orthogonalLoop=1;jettySize=auto;html=1;exitX=0.5;exitY=0;exitDx=0;exitDy=0;entryX=0.5;entryY=1;entryDx=0;entryDy=0;" edge="1" parent="1" source="q35TZ0qUf0RJZbmUq1Yi-17" target="q35TZ0qUf0RJZbmUq1Yi-21">
          <mxGeometry relative="1" as="geometry">
            <mxPoint x="625.0689655172414" y="30" as="targetPoint" />
          </mxGeometry>
        </mxCell>
        <mxCell id="q35TZ0qUf0RJZbmUq1Yi-22" value="dqv:inDimension" style="edgeLabel;html=1;align=center;verticalAlign=middle;resizable=0;points=[];fontStyle=0" vertex="1" connectable="0" parent="q35TZ0qUf0RJZbmUq1Yi-20">
          <mxGeometry x="-0.1149" relative="1" as="geometry">
            <mxPoint as="offset" />
          </mxGeometry>
        </mxCell>
        <mxCell id="q35TZ0qUf0RJZbmUq1Yi-17" value="&lt;font style=&quot;font-size: 10px;&quot;&gt;dqv:Metric&lt;/font&gt;" style="rounded=0;whiteSpace=wrap;html=1;fillColor=#4DFF5E;" vertex="1" parent="1">
          <mxGeometry x="550" y="50" width="150" height="40" as="geometry" />
        </mxCell>
        <mxCell id="q35TZ0qUf0RJZbmUq1Yi-21" value="&lt;font style=&quot;font-size: 10px;&quot;&gt;dqv:Dimension&lt;/font&gt;" style="rounded=0;whiteSpace=wrap;html=1;fillColor=#4DFF5E;" vertex="1" parent="1">
          <mxGeometry x="550" y="-20" width="150" height="40" as="geometry" />
        </mxCell>
        <mxCell id="q35TZ0qUf0RJZbmUq1Yi-23" value="" style="shape=curlyBracket;whiteSpace=wrap;html=1;rounded=1;flipH=1;labelPosition=right;verticalLabelPosition=middle;align=left;verticalAlign=middle;" vertex="1" parent="1">
          <mxGeometry x="720" y="-20" width="20" height="180" as="geometry" />
        </mxCell>
        <mxCell id="q35TZ0qUf0RJZbmUq1Yi-24" value="&lt;div&gt;&lt;b&gt;&lt;font style=&quot;font-size: 11px;&quot;&gt;For each (sub)field&lt;/font&gt;&lt;/b&gt;&lt;/div&gt;&lt;div&gt;&lt;b&gt;&lt;font style=&quot;font-size: 11px;&quot;&gt;Necessary to represent&lt;/font&gt;&lt;/b&gt;&lt;/div&gt;&lt;div&gt;&lt;b&gt;&lt;font style=&quot;font-size: 11px;&quot;&gt;Datasheets in a machine-readable&lt;/font&gt;&lt;/b&gt;&lt;/div&gt;&lt;div&gt;&lt;b&gt;&lt;font style=&quot;font-size: 11px;&quot;&gt;manner&lt;/font&gt;&lt;/b&gt;&lt;br&gt;&lt;/div&gt;" style="text;html=1;align=center;verticalAlign=middle;resizable=0;points=[];autosize=1;strokeColor=none;fillColor=none;" vertex="1" parent="1">
          <mxGeometry x="725" y="35" width="200" height="70" as="geometry" />
        </mxCell>
        <mxCell id="q35TZ0qUf0RJZbmUq1Yi-25" value="" style="shape=curlyBracket;whiteSpace=wrap;html=1;rounded=1;labelPosition=left;verticalLabelPosition=middle;align=right;verticalAlign=middle;" vertex="1" parent="1">
          <mxGeometry x="500" y="-20" width="20" height="110" as="geometry" />
        </mxCell>
        <mxCell id="q35TZ0qUf0RJZbmUq1Yi-26" value="&lt;div&gt;&lt;font style=&quot;font-size: 11px;&quot;&gt;Introduce a set of Dimensions&lt;/font&gt;&lt;/div&gt;&lt;div&gt;&lt;font style=&quot;font-size: 11px;&quot;&gt;and Metrics to describe&lt;/font&gt;&lt;/div&gt;&lt;div&gt;&lt;font style=&quot;font-size: 11px;&quot;&gt;Datasheet fields&lt;/font&gt;&lt;br&gt;&lt;/div&gt;" style="text;html=1;align=center;verticalAlign=middle;resizable=0;points=[];autosize=1;strokeColor=none;fillColor=none;" vertex="1" parent="1">
          <mxGeometry x="340" y="5" width="170" height="60" as="geometry" />
        </mxCell>
        <mxCell id="q35TZ0qUf0RJZbmUq1Yi-27" value="&lt;div&gt;Validation, incl. field type-checking&lt;/div&gt;&lt;div&gt;and dependencies between fields&lt;/div&gt;&lt;div&gt;Using SHACL SPARQL constraints.&lt;br&gt;&lt;/div&gt;" style="text;html=1;align=center;verticalAlign=middle;resizable=0;points=[];autosize=1;strokeColor=none;fillColor=none;fontStyle=1" vertex="1" parent="1">
          <mxGeometry x="520" y="170" width="210" height="60" as="geometry" />
        </mxCell>
        <mxCell id="q35TZ0qUf0RJZbmUq1Yi-41" style="edgeStyle=orthogonalEdgeStyle;rounded=0;orthogonalLoop=1;jettySize=auto;html=1;exitX=0.5;exitY=1;exitDx=0;exitDy=0;entryX=0.5;entryY=0;entryDx=0;entryDy=0;" edge="1" parent="1" source="q35TZ0qUf0RJZbmUq1Yi-36" target="q35TZ0qUf0RJZbmUq1Yi-47">
          <mxGeometry relative="1" as="geometry">
            <mxPoint x="380" y="560" as="targetPoint" />
          </mxGeometry>
        </mxCell>
        <mxCell id="q35TZ0qUf0RJZbmUq1Yi-46" value=":hasAssertion" style="edgeLabel;html=1;align=center;verticalAlign=middle;resizable=0;points=[];fontStyle=0" vertex="1" connectable="0" parent="q35TZ0qUf0RJZbmUq1Yi-41">
          <mxGeometry x="0.2219" y="-1" relative="1" as="geometry">
            <mxPoint as="offset" />
          </mxGeometry>
        </mxCell>
        <mxCell id="q35TZ0qUf0RJZbmUq1Yi-43" style="edgeStyle=orthogonalEdgeStyle;rounded=0;orthogonalLoop=1;jettySize=auto;html=1;exitX=0.5;exitY=1;exitDx=0;exitDy=0;" edge="1" parent="1" source="q35TZ0qUf0RJZbmUq1Yi-36">
          <mxGeometry relative="1" as="geometry">
            <mxPoint x="280" y="520" as="targetPoint" />
          </mxGeometry>
        </mxCell>
        <mxCell id="q35TZ0qUf0RJZbmUq1Yi-44" value=":auditDate" style="edgeLabel;html=1;align=center;verticalAlign=middle;resizable=0;points=[];fillColor=#4DFF5E;fontStyle=0" vertex="1" connectable="0" parent="q35TZ0qUf0RJZbmUq1Yi-43">
          <mxGeometry x="0.2903" y="1" relative="1" as="geometry">
            <mxPoint x="10" y="-1" as="offset" />
          </mxGeometry>
        </mxCell>
        <mxCell id="q35TZ0qUf0RJZbmUq1Yi-105" style="edgeStyle=orthogonalEdgeStyle;rounded=0;orthogonalLoop=1;jettySize=auto;html=1;exitX=0;exitY=0.5;exitDx=0;exitDy=0;entryX=0.5;entryY=0;entryDx=0;entryDy=0;" edge="1" parent="1" source="q35TZ0qUf0RJZbmUq1Yi-36" target="q35TZ0qUf0RJZbmUq1Yi-107">
          <mxGeometry relative="1" as="geometry">
            <mxPoint x="160" y="510" as="targetPoint" />
          </mxGeometry>
        </mxCell>
        <mxCell id="q35TZ0qUf0RJZbmUq1Yi-106" value=":potentiatesSocietalBias" style="edgeLabel;html=1;align=center;verticalAlign=middle;resizable=0;points=[];" vertex="1" connectable="0" parent="q35TZ0qUf0RJZbmUq1Yi-105">
          <mxGeometry x="-0.1982" y="-3" relative="1" as="geometry">
            <mxPoint x="18" y="3" as="offset" />
          </mxGeometry>
        </mxCell>
        <mxCell id="q35TZ0qUf0RJZbmUq1Yi-36" value=":BiasAudit" style="rounded=0;whiteSpace=wrap;html=1;fillColor=#4DFF5E;" vertex="1" parent="1">
          <mxGeometry x="300" y="440" width="160" height="40" as="geometry" />
        </mxCell>
        <mxCell id="q35TZ0qUf0RJZbmUq1Yi-37" value=":BiasAudit" style="rounded=0;whiteSpace=wrap;html=1;fillColor=#4DFF5E;" vertex="1" parent="1">
          <mxGeometry y="120" width="160" height="40" as="geometry" />
        </mxCell>
        <mxCell id="q35TZ0qUf0RJZbmUq1Yi-38" value="" style="shape=curlyBracket;whiteSpace=wrap;html=1;rounded=1;flipH=1;labelPosition=right;verticalLabelPosition=middle;align=left;verticalAlign=middle;" vertex="1" parent="1">
          <mxGeometry x="490" y="440" width="20" height="120" as="geometry" />
        </mxCell>
        <mxCell id="q35TZ0qUf0RJZbmUq1Yi-39" value="&lt;div&gt;Represent a suite of tests&lt;/div&gt;&lt;div&gt;Carried out on the model outputs.&lt;/div&gt;&lt;div&gt;Could represent a single test script,&lt;/div&gt;&lt;div&gt;but is flexible.&lt;br&gt;&lt;/div&gt;" style="text;html=1;align=center;verticalAlign=middle;resizable=0;points=[];autosize=1;strokeColor=none;fillColor=none;" vertex="1" parent="1">
          <mxGeometry x="510" y="465" width="210" height="70" as="geometry" />
        </mxCell>
        <mxCell id="q35TZ0qUf0RJZbmUq1Yi-45" value="xsd:date" style="rounded=0;whiteSpace=wrap;html=1;fillColor=#4DFF5E;" vertex="1" parent="1">
          <mxGeometry x="240" y="520" width="80" height="20" as="geometry" />
        </mxCell>
        <mxCell id="q35TZ0qUf0RJZbmUq1Yi-51" style="edgeStyle=orthogonalEdgeStyle;rounded=0;orthogonalLoop=1;jettySize=auto;html=1;exitX=0.5;exitY=1;exitDx=0;exitDy=0;" edge="1" parent="1" source="q35TZ0qUf0RJZbmUq1Yi-47">
          <mxGeometry relative="1" as="geometry">
            <mxPoint x="379.9655172413793" y="640" as="targetPoint" />
          </mxGeometry>
        </mxCell>
        <mxCell id="q35TZ0qUf0RJZbmUq1Yi-52" value=":groupDescription" style="edgeLabel;html=1;align=center;verticalAlign=middle;resizable=0;points=[];" vertex="1" connectable="0" parent="q35TZ0qUf0RJZbmUq1Yi-51">
          <mxGeometry x="-0.0903" relative="1" as="geometry">
            <mxPoint as="offset" />
          </mxGeometry>
        </mxCell>
        <mxCell id="q35TZ0qUf0RJZbmUq1Yi-55" style="edgeStyle=orthogonalEdgeStyle;rounded=0;orthogonalLoop=1;jettySize=auto;html=1;entryX=0.5;entryY=0;entryDx=0;entryDy=0;" edge="1" parent="1" source="q35TZ0qUf0RJZbmUq1Yi-47" target="q35TZ0qUf0RJZbmUq1Yi-59">
          <mxGeometry relative="1" as="geometry">
            <mxPoint x="479.9999999999998" y="640" as="targetPoint" />
          </mxGeometry>
        </mxCell>
        <mxCell id="q35TZ0qUf0RJZbmUq1Yi-56" value=":testsBias" style="edgeLabel;html=1;align=center;verticalAlign=middle;resizable=0;points=[];" vertex="1" connectable="0" parent="q35TZ0qUf0RJZbmUq1Yi-55">
          <mxGeometry x="0.3108" y="-2" relative="1" as="geometry">
            <mxPoint x="2" y="22" as="offset" />
          </mxGeometry>
        </mxCell>
        <mxCell id="q35TZ0qUf0RJZbmUq1Yi-62" style="edgeStyle=orthogonalEdgeStyle;rounded=0;orthogonalLoop=1;jettySize=auto;html=1;exitX=0;exitY=0.5;exitDx=0;exitDy=0;" edge="1" parent="1" source="q35TZ0qUf0RJZbmUq1Yi-47">
          <mxGeometry relative="1" as="geometry">
            <mxPoint x="280" y="640" as="targetPoint" />
          </mxGeometry>
        </mxCell>
        <mxCell id="q35TZ0qUf0RJZbmUq1Yi-63" value="earl:result" style="edgeLabel;html=1;align=center;verticalAlign=middle;resizable=0;points=[];" vertex="1" connectable="0" parent="q35TZ0qUf0RJZbmUq1Yi-62">
          <mxGeometry x="0.4698" y="-1" relative="1" as="geometry">
            <mxPoint as="offset" />
          </mxGeometry>
        </mxCell>
        <mxCell id="q35TZ0qUf0RJZbmUq1Yi-68" style="edgeStyle=orthogonalEdgeStyle;rounded=0;orthogonalLoop=1;jettySize=auto;html=1;exitX=0;exitY=0.5;exitDx=0;exitDy=0;entryX=0.5;entryY=0;entryDx=0;entryDy=0;" edge="1" parent="1" source="q35TZ0qUf0RJZbmUq1Yi-47" target="q35TZ0qUf0RJZbmUq1Yi-70">
          <mxGeometry relative="1" as="geometry">
            <mxPoint x="180" y="620" as="targetPoint" />
          </mxGeometry>
        </mxCell>
        <mxCell id="q35TZ0qUf0RJZbmUq1Yi-69" value=":testResultURI" style="edgeLabel;html=1;align=center;verticalAlign=middle;resizable=0;points=[];" vertex="1" connectable="0" parent="q35TZ0qUf0RJZbmUq1Yi-68">
          <mxGeometry x="0.3927" y="2" relative="1" as="geometry">
            <mxPoint x="-6" y="18" as="offset" />
          </mxGeometry>
        </mxCell>
        <mxCell id="q35TZ0qUf0RJZbmUq1Yi-84" style="edgeStyle=orthogonalEdgeStyle;rounded=0;orthogonalLoop=1;jettySize=auto;html=1;exitX=1;exitY=0.5;exitDx=0;exitDy=0;entryX=0.5;entryY=0;entryDx=0;entryDy=0;" edge="1" parent="1" source="q35TZ0qUf0RJZbmUq1Yi-47" target="q35TZ0qUf0RJZbmUq1Yi-85">
          <mxGeometry relative="1" as="geometry">
            <mxPoint x="640" y="585" as="targetPoint" />
          </mxGeometry>
        </mxCell>
        <mxCell id="q35TZ0qUf0RJZbmUq1Yi-86" value=":hasFairnessMetric" style="edgeLabel;html=1;align=center;verticalAlign=middle;resizable=0;points=[];" vertex="1" connectable="0" parent="q35TZ0qUf0RJZbmUq1Yi-84">
          <mxGeometry x="0.7481" y="-1" relative="1" as="geometry">
            <mxPoint as="offset" />
          </mxGeometry>
        </mxCell>
        <mxCell id="q35TZ0qUf0RJZbmUq1Yi-97" style="edgeStyle=orthogonalEdgeStyle;rounded=0;orthogonalLoop=1;jettySize=auto;html=1;entryX=0.5;entryY=0;entryDx=0;entryDy=0;" edge="1" parent="1" source="q35TZ0qUf0RJZbmUq1Yi-47" target="q35TZ0qUf0RJZbmUq1Yi-98">
          <mxGeometry relative="1" as="geometry">
            <mxPoint x="50" y="630" as="targetPoint" />
          </mxGeometry>
        </mxCell>
        <mxCell id="q35TZ0qUf0RJZbmUq1Yi-99" value=":mitigationApplied" style="edgeLabel;html=1;align=center;verticalAlign=middle;resizable=0;points=[];" vertex="1" connectable="0" parent="q35TZ0qUf0RJZbmUq1Yi-97">
          <mxGeometry x="0.8059" y="2" relative="1" as="geometry">
            <mxPoint as="offset" />
          </mxGeometry>
        </mxCell>
        <mxCell id="q35TZ0qUf0RJZbmUq1Yi-100" style="edgeStyle=orthogonalEdgeStyle;rounded=0;orthogonalLoop=1;jettySize=auto;html=1;" edge="1" parent="1" source="q35TZ0qUf0RJZbmUq1Yi-47">
          <mxGeometry relative="1" as="geometry">
            <mxPoint x="820" y="640" as="targetPoint" />
          </mxGeometry>
        </mxCell>
        <mxCell id="q35TZ0qUf0RJZbmUq1Yi-101" value=":testThreshold" style="edgeLabel;html=1;align=center;verticalAlign=middle;resizable=0;points=[];" vertex="1" connectable="0" parent="q35TZ0qUf0RJZbmUq1Yi-100">
          <mxGeometry x="0.8418" y="-1" relative="1" as="geometry">
            <mxPoint as="offset" />
          </mxGeometry>
        </mxCell>
        <mxCell id="q35TZ0qUf0RJZbmUq1Yi-47" value=":BiasAssertion" style="rounded=0;whiteSpace=wrap;html=1;fillColor=#4DFF5E;" vertex="1" parent="1">
          <mxGeometry x="325" y="570" width="110" height="30" as="geometry" />
        </mxCell>
        <mxCell id="q35TZ0qUf0RJZbmUq1Yi-54" value="xsd:string" style="rounded=0;whiteSpace=wrap;html=1;fillColor=#4DFF5E;" vertex="1" parent="1">
          <mxGeometry x="340" y="640" width="80" height="20" as="geometry" />
        </mxCell>
        <mxCell id="q35TZ0qUf0RJZbmUq1Yi-59" value=":Bias" style="rounded=0;whiteSpace=wrap;html=1;fillColor=#4DFF5E;" vertex="1" parent="1">
          <mxGeometry x="480" y="640" width="80" height="20" as="geometry" />
        </mxCell>
        <mxCell id="q35TZ0qUf0RJZbmUq1Yi-65" style="edgeStyle=orthogonalEdgeStyle;rounded=0;orthogonalLoop=1;jettySize=auto;html=1;" edge="1" parent="1" source="q35TZ0qUf0RJZbmUq1Yi-64">
          <mxGeometry relative="1" as="geometry">
            <mxPoint x="280" y="700" as="targetPoint" />
          </mxGeometry>
        </mxCell>
        <mxCell id="q35TZ0qUf0RJZbmUq1Yi-66" value="earl:outcome" style="edgeLabel;html=1;align=center;verticalAlign=middle;resizable=0;points=[];" vertex="1" connectable="0" parent="q35TZ0qUf0RJZbmUq1Yi-65">
          <mxGeometry x="-0.225" y="2" relative="1" as="geometry">
            <mxPoint as="offset" />
          </mxGeometry>
        </mxCell>
        <mxCell id="q35TZ0qUf0RJZbmUq1Yi-64" value="&lt;font style=&quot;font-size: 11px;&quot;&gt;earl:TestResult&lt;/font&gt;" style="rounded=0;whiteSpace=wrap;html=1;fillColor=#4DFF5E;" vertex="1" parent="1">
          <mxGeometry x="240" y="640" width="80" height="20" as="geometry" />
        </mxCell>
        <mxCell id="q35TZ0qUf0RJZbmUq1Yi-70" value="xsd:anyURI" style="rounded=0;whiteSpace=wrap;html=1;fillColor=#4DFF5E;" vertex="1" parent="1">
          <mxGeometry x="140" y="640" width="80" height="20" as="geometry" />
        </mxCell>
        <mxCell id="q35TZ0qUf0RJZbmUq1Yi-71" value="" style="shape=curlyBracket;whiteSpace=wrap;html=1;rounded=1;labelPosition=left;verticalLabelPosition=middle;align=right;verticalAlign=middle;" vertex="1" parent="1">
          <mxGeometry x="210" y="680" width="20" height="100" as="geometry" />
        </mxCell>
        <mxCell id="q35TZ0qUf0RJZbmUq1Yi-72" value="" style="shape=curlyBracket;whiteSpace=wrap;html=1;rounded=1;labelPosition=left;verticalLabelPosition=middle;align=right;verticalAlign=middle;" vertex="1" parent="1">
          <mxGeometry x="-30" y="120" width="20" height="40" as="geometry" />
        </mxCell>
        <mxCell id="q35TZ0qUf0RJZbmUq1Yi-73" value="&lt;div&gt;Same basic structure as on&lt;/div&gt;&lt;div&gt;airo:MLModel (see below)&lt;br&gt;&lt;/div&gt;" style="text;html=1;align=center;verticalAlign=middle;resizable=0;points=[];autosize=1;strokeColor=none;fillColor=none;fontStyle=1" vertex="1" parent="1">
          <mxGeometry x="-200" y="120" width="170" height="40" as="geometry" />
        </mxCell>
        <mxCell id="q35TZ0qUf0RJZbmUq1Yi-76" value="..." style="text;html=1;align=center;verticalAlign=middle;resizable=0;points=[];autosize=1;strokeColor=none;fillColor=none;" vertex="1" parent="1">
          <mxGeometry x="560" y="315" width="30" height="30" as="geometry" />
        </mxCell>
        <mxCell id="q35TZ0qUf0RJZbmUq1Yi-78" style="edgeStyle=orthogonalEdgeStyle;rounded=0;orthogonalLoop=1;jettySize=auto;html=1;" edge="1" parent="1" source="q35TZ0qUf0RJZbmUq1Yi-77">
          <mxGeometry relative="1" as="geometry">
            <mxPoint x="280" y="760" as="targetPoint" />
          </mxGeometry>
        </mxCell>
        <mxCell id="q35TZ0qUf0RJZbmUq1Yi-79" value=":floatValue" style="edgeLabel;html=1;align=center;verticalAlign=middle;resizable=0;points=[];" vertex="1" connectable="0" parent="q35TZ0qUf0RJZbmUq1Yi-78">
          <mxGeometry x="-0.1112" y="-2" relative="1" as="geometry">
            <mxPoint as="offset" />
          </mxGeometry>
        </mxCell>
        <mxCell id="q35TZ0qUf0RJZbmUq1Yi-77" value=":FloatFail" style="rounded=0;whiteSpace=wrap;html=1;fillColor=#4DFF5E;" vertex="1" parent="1">
          <mxGeometry x="240" y="700" width="80" height="20" as="geometry" />
        </mxCell>
        <mxCell id="q35TZ0qUf0RJZbmUq1Yi-80" value="xsd:float" style="rounded=0;whiteSpace=wrap;html=1;fillColor=#4DFF5E;" vertex="1" parent="1">
          <mxGeometry x="240" y="760" width="80" height="20" as="geometry" />
        </mxCell>
        <mxCell id="q35TZ0qUf0RJZbmUq1Yi-81" value="&lt;div&gt;New subclasses&lt;/div&gt;&lt;div&gt;of earl:Pass&lt;/div&gt;&lt;div&gt;and earl:Fail&lt;/div&gt;&lt;div&gt;Allowing for numerical&lt;/div&gt;&lt;div&gt;test results to be&lt;/div&gt;&lt;div&gt;indicated.&lt;/div&gt;&lt;div&gt;Also :FloatPass/:IntPass/&lt;/div&gt;&lt;div&gt;:IntFail&lt;br&gt;&lt;/div&gt;" style="text;html=1;align=center;verticalAlign=middle;resizable=0;points=[];autosize=1;strokeColor=none;fillColor=none;" vertex="1" parent="1">
          <mxGeometry x="60" y="665" width="160" height="130" as="geometry" />
        </mxCell>
        <mxCell id="q35TZ0qUf0RJZbmUq1Yi-82" value="" style="shape=curlyBracket;whiteSpace=wrap;html=1;rounded=1;flipH=1;labelPosition=right;verticalLabelPosition=middle;align=left;verticalAlign=middle;" vertex="1" parent="1">
          <mxGeometry x="450" y="360" width="20" height="70" as="geometry" />
        </mxCell>
        <mxCell id="q35TZ0qUf0RJZbmUq1Yi-83" value="&lt;div&gt;Aligned with AI Cards,&lt;/div&gt;&lt;div&gt;Using existing airo:hasDocumentation&lt;/div&gt;&lt;div&gt;property&lt;br&gt;&lt;/div&gt;" style="text;html=1;align=center;verticalAlign=middle;resizable=0;points=[];autosize=1;strokeColor=none;fillColor=none;" vertex="1" parent="1">
          <mxGeometry x="480" y="365" width="220" height="60" as="geometry" />
        </mxCell>
        <mxCell id="q35TZ0qUf0RJZbmUq1Yi-85" value=":FairnessMetric" style="rounded=0;whiteSpace=wrap;html=1;fillColor=#4DFF5E;" vertex="1" parent="1">
          <mxGeometry x="600" y="640" width="100" height="20" as="geometry" />
        </mxCell>
        <mxCell id="q35TZ0qUf0RJZbmUq1Yi-87" value="" style="shape=curlyBracket;whiteSpace=wrap;html=1;rounded=1;flipH=1;labelPosition=right;verticalLabelPosition=middle;align=left;verticalAlign=middle;" vertex="1" parent="1">
          <mxGeometry x="420" y="520" width="20" height="40" as="geometry" />
        </mxCell>
        <mxCell id="q35TZ0qUf0RJZbmUq1Yi-88" value="1..n" style="text;html=1;align=center;verticalAlign=middle;resizable=0;points=[];autosize=1;strokeColor=none;fillColor=none;fontStyle=1" vertex="1" parent="1">
          <mxGeometry x="435" y="525" width="40" height="30" as="geometry" />
        </mxCell>
        <mxCell id="q35TZ0qUf0RJZbmUq1Yi-98" value=":BiasMitigationMeasure" style="rounded=0;whiteSpace=wrap;html=1;fillColor=#4DFF5E;" vertex="1" parent="1">
          <mxGeometry x="-30" y="640" width="140" height="20" as="geometry" />
        </mxCell>
        <mxCell id="q35TZ0qUf0RJZbmUq1Yi-102" value=":Threshold" style="rounded=0;whiteSpace=wrap;html=1;fillColor=#4DFF5E;" vertex="1" parent="1">
          <mxGeometry x="775" y="640" width="100" height="20" as="geometry" />
        </mxCell>
        <mxCell id="q35TZ0qUf0RJZbmUq1Yi-108" style="edgeStyle=orthogonalEdgeStyle;rounded=0;orthogonalLoop=1;jettySize=auto;html=1;entryX=1;entryY=0.5;entryDx=0;entryDy=0;" edge="1" parent="1" source="q35TZ0qUf0RJZbmUq1Yi-107" target="q35TZ0qUf0RJZbmUq1Yi-110">
          <mxGeometry relative="1" as="geometry">
            <mxPoint x="20" y="525" as="targetPoint" />
          </mxGeometry>
        </mxCell>
        <mxCell id="q35TZ0qUf0RJZbmUq1Yi-109" value=":potentiallyViolates" style="edgeLabel;html=1;align=center;verticalAlign=middle;resizable=0;points=[];" vertex="1" connectable="0" parent="q35TZ0qUf0RJZbmUq1Yi-108">
          <mxGeometry x="-0.0922" y="-1" relative="1" as="geometry">
            <mxPoint x="-4" y="1" as="offset" />
          </mxGeometry>
        </mxCell>
        <mxCell id="q35TZ0qUf0RJZbmUq1Yi-107" value=":SocietalBias" style="rounded=0;whiteSpace=wrap;html=1;fillColor=#4DFF5E;" vertex="1" parent="1">
          <mxGeometry x="120" y="515" width="80" height="20" as="geometry" />
        </mxCell>
        <mxCell id="q35TZ0qUf0RJZbmUq1Yi-110" value=":EUFundamentalRight" style="rounded=0;whiteSpace=wrap;html=1;fillColor=#4DFF5E;" vertex="1" parent="1">
          <mxGeometry x="-140" y="515" width="130" height="20" as="geometry" />
        </mxCell>
        <mxCell id="q35TZ0qUf0RJZbmUq1Yi-111" value="0..n" style="text;html=1;align=center;verticalAlign=middle;resizable=0;points=[];autosize=1;strokeColor=none;fillColor=none;fontStyle=1" vertex="1" parent="1">
          <mxGeometry x="210" y="465" width="40" height="30" as="geometry" />
        </mxCell>
        <mxCell id="q35TZ0qUf0RJZbmUq1Yi-112" value="" style="shape=curlyBracket;whiteSpace=wrap;html=1;rounded=1;flipH=1;labelPosition=right;verticalLabelPosition=middle;align=left;verticalAlign=middle;" vertex="1" parent="1">
          <mxGeometry x="880" y="640" width="20" height="20" as="geometry" />
        </mxCell>
        <mxCell id="q35TZ0qUf0RJZbmUq1Yi-113" value="&lt;div&gt;Two subclasses provided:&lt;/div&gt;&lt;div&gt;:ThresholdBinary, and&lt;/div&gt;&lt;div&gt;:ThresholdRange&lt;br&gt;&lt;/div&gt;" style="text;html=1;align=center;verticalAlign=middle;resizable=0;points=[];autosize=1;strokeColor=none;fillColor=none;fontStyle=1" vertex="1" parent="1">
          <mxGeometry x="900" y="620" width="160" height="60" as="geometry" />
        </mxCell>
        <mxCell id="q35TZ0qUf0RJZbmUq1Yi-115" value="&lt;div&gt;&lt;font style=&quot;font-size: 11px;&quot;&gt;Potential to represent&lt;/font&gt;&lt;/div&gt;&lt;div&gt;&lt;font style=&quot;font-size: 11px;&quot;&gt;AI development pipeline&lt;/font&gt;&lt;/div&gt;&lt;div&gt;&lt;font style=&quot;font-size: 11px;&quot;&gt;Using recursive airo:hasModel / airo:hasComponent&lt;/font&gt;&lt;/div&gt;&lt;div&gt;&lt;font style=&quot;font-size: 11px;&quot;&gt;Properties&lt;br&gt;&lt;/font&gt;&lt;/div&gt;" style="text;html=1;align=center;verticalAlign=middle;resizable=0;points=[];autosize=1;strokeColor=none;fillColor=none;" vertex="1" parent="1">
          <mxGeometry x="660" y="300" width="280" height="70" as="geometry" />
        </mxCell>
        <mxCell id="q35TZ0qUf0RJZbmUq1Yi-135" value="" style="shape=curlyBracket;whiteSpace=wrap;html=1;rounded=1;flipH=1;labelPosition=right;verticalLabelPosition=middle;align=left;verticalAlign=middle;" vertex="1" parent="1">
          <mxGeometry x="640" y="310" width="20" height="50" as="geometry" />
        </mxCell>
        <mxCell id="q35TZ0qUf0RJZbmUq1Yi-137" value="" style="shape=curlyBracket;whiteSpace=wrap;html=1;rounded=1;labelPosition=left;verticalLabelPosition=middle;align=right;verticalAlign=middle;" vertex="1" parent="1">
          <mxGeometry x="-160" y="511.25" width="20" height="27.5" as="geometry" />
        </mxCell>
        <mxCell id="q35TZ0qUf0RJZbmUq1Yi-138" value="&lt;div&gt;&lt;font style=&quot;font-size: 10px;&quot;&gt;e.g.,&lt;/font&gt;&lt;/div&gt;&lt;div&gt;&lt;font style=&quot;font-size: 10px;&quot;&gt;:Right&lt;/font&gt;&lt;font style=&quot;font-size: 10px;&quot;&gt;NonDiscrimination&lt;/font&gt;&lt;/div&gt;" style="text;html=1;align=center;verticalAlign=middle;resizable=0;points=[];autosize=1;strokeColor=none;fillColor=none;" vertex="1" parent="1">
          <mxGeometry x="-280" y="498.75" width="130" height="40" as="geometry" />
        </mxCell>
      </root>
    </mxGraphModel>
  </diagram>
</mxfile>
